<svg width="95" height="65" viewBox="0 0 95 65" fill="none" xmlns="http://www.w3.org/2000/svg">
<mask id="mask0_4124_3170" style="mask-type:alpha" maskUnits="userSpaceOnUse" x="0" y="0" width="95" height="65">
<rect width="95" height="64.4643" fill="#D9D9D9"/>
</mask>
<g mask="url(#mask0_4124_3170)">
<g clip-path="url(#clip0_4124_3170)">
<path d="M30.0468 12.7456C30.0468 14.3595 28.7263 15.6433 27.1124 15.6433C25.4985 15.6433 24.2147 14.3228 24.2147 12.7456C24.2147 11.1317 25.5352 9.8479 27.1124 9.8479C28.7263 9.8479 30.0468 11.1684 30.0468 12.7456Z" fill="#00AFAA"/>
<path d="M54.8422 12.7456C54.8422 14.3595 53.5217 15.6433 51.9078 15.6433C50.2939 15.6433 49.0101 14.3228 49.0101 12.7456C49.0101 11.1317 50.3306 9.8479 51.9078 9.8479C53.5217 9.8479 54.8422 11.1684 54.8422 12.7456Z" fill="#FFB600"/>
<path d="M30.1201 33.6896H21.5004C16.402 33.6896 12.1471 29.6182 12.1105 24.5197C12.0738 19.7147 15.7051 15.7166 20.3634 15.2031C20.9502 15.1298 21.3904 14.6529 21.3904 14.066V11.2417C21.3904 10.5815 20.8035 10.0313 20.1433 10.1047C12.7707 10.7282 6.97533 16.9271 7.01201 24.4464C7.04869 32.3691 13.5777 38.7514 21.5004 38.7514H30.1201C30.7437 38.7514 31.2572 38.2379 31.2572 37.6143V34.8267C31.2939 34.2031 30.7804 33.6896 30.1201 33.6896Z" fill="black"/>
<path d="M70.4677 34.2765C65.3692 34.2765 61.1878 30.1317 61.1878 24.9965C61.1878 19.8614 65.3325 15.7533 70.4677 15.7533C75.5661 15.7533 79.7476 19.8981 79.7476 25.0332C79.7476 30.1684 75.5661 34.2765 70.4677 34.2765ZM70.4677 10.6915C62.5449 10.6915 56.126 17.1104 56.126 25.0332C56.126 32.956 62.5449 39.3749 70.4677 39.3749C78.3905 39.3749 84.8094 32.956 84.8094 25.0332C84.8094 17.1104 78.3538 10.6915 70.4677 10.6915Z" fill="black"/>
<path d="M55.0256 33.6896H46.2592C41.1607 33.6896 36.9059 29.6182 36.8692 24.5197C36.8325 19.7147 40.4638 15.7166 45.1221 15.2031C45.709 15.1298 46.1491 14.6529 46.1491 14.066V11.2417C46.1491 10.5815 45.5623 10.0313 44.902 10.1047C37.5661 10.7282 31.7707 16.9271 31.8074 24.4464C31.8441 32.3691 38.3731 38.7514 46.2958 38.7514H55.0256C55.6491 38.7514 56.1626 38.2379 56.1626 37.6143V34.8267C56.1993 34.2031 55.6858 33.6896 55.0256 33.6896Z" fill="black"/>
<path d="M62.5449 58.5216V44.8402H63.4986V58.485H62.5449V58.5216Z" fill="black"/>
<path d="M73.1086 49.1684H74.0256V58.5216H73.1086V56.761C72.4484 58.0815 71.3113 58.7417 69.7708 58.7417C68.6704 58.7417 67.7901 58.4116 67.1299 57.7147C66.4696 57.0178 66.1395 56.1375 66.1395 55.0004V49.1684H67.0932V54.9637C67.0932 55.844 67.35 56.541 67.8268 57.0545C68.3036 57.568 69.0005 57.8247 69.8442 57.8247C70.7978 57.8247 71.6048 57.4946 72.1916 56.8711C72.8152 56.2475 73.1086 55.3305 73.1086 54.1201V49.1684Z" fill="black"/>
<path d="M59.1337 46.5641C58.3634 45.7938 57.3731 45.3904 56.1993 45.3904H51.7611V56.8344C51.9078 56.761 52.0912 56.7244 52.2746 56.7244C52.458 56.7244 52.6047 56.761 52.7515 56.8344V53.4966H56.1993C57.3731 53.4966 58.3267 53.1298 59.1337 52.3595C59.904 51.5892 60.3074 50.6355 60.3074 49.4618C60.3074 48.2881 59.904 47.3344 59.1337 46.5641ZM58.4368 51.6993C57.8499 52.2861 57.1163 52.5796 56.236 52.5796H52.7881V46.344H56.236C57.1163 46.344 57.8866 46.6375 58.4368 47.2244C59.0237 47.8112 59.3171 48.5448 59.3171 49.4618C59.3171 50.3788 59.0237 51.1124 58.4368 51.6993Z" fill="black"/>
<path d="M81.2515 53.6799C80.7013 53.5332 80.1144 53.3865 79.5642 53.2398C79.014 53.0931 78.5372 52.9097 78.1337 52.6529C77.7303 52.3962 77.5469 52.0294 77.5469 51.5892C77.5469 51.0757 77.7669 50.6355 78.2071 50.3421C78.6472 50.012 79.1608 49.8653 79.821 49.8653C80.3712 49.8653 80.848 49.9753 81.2882 50.2321L81.3249 50.2688C81.4716 49.9753 81.6916 49.7552 82.0218 49.6452C81.9484 49.5718 81.875 49.5352 81.765 49.4618C81.2148 49.1317 80.5546 48.9483 79.821 48.9483C78.904 48.9483 78.1337 49.205 77.5469 49.7186C76.96 50.2321 76.6665 50.8556 76.6665 51.6259C76.6665 52.2494 76.8499 52.763 77.2534 53.1298C77.6569 53.4966 78.097 53.7533 78.6839 53.9C79.2341 54.0467 79.7843 54.1935 80.3712 54.3402C80.9214 54.4869 81.3982 54.707 81.8017 54.9637C82.2052 55.2205 82.3886 55.624 82.3886 56.0641C82.3886 56.6143 82.1685 57.0545 81.6916 57.3479C81.2515 57.6413 80.6646 57.7881 79.9677 57.7881C79.2708 57.7881 78.6839 57.6413 78.2071 57.3479C77.7303 57.0545 77.4001 56.651 77.2167 56.1375L76.4098 56.6143C76.6299 57.2379 77.07 57.7514 77.6936 58.1182C78.3171 58.485 79.0507 58.705 79.9677 58.705C80.9581 58.705 81.765 58.4483 82.3886 57.9715C83.0121 57.4579 83.3055 56.8344 83.3055 56.0641C83.3055 55.4039 83.1221 54.8904 82.7187 54.4869C82.2785 54.1201 81.8017 53.8267 81.2515 53.6799Z" fill="black"/>
<path d="M52.2747 58.485C52.6191 58.485 52.8982 58.2058 52.8982 57.8614C52.8982 57.517 52.6191 57.2379 52.2747 57.2379C51.9303 57.2379 51.6511 57.517 51.6511 57.8614C51.6511 58.2058 51.9303 58.485 52.2747 58.485Z" fill="#FFB600"/>
<path d="M82.3518 51.3325C82.6962 51.3325 82.9754 51.0533 82.9754 50.7089C82.9754 50.3645 82.6962 50.0854 82.3518 50.0854C82.0074 50.0854 81.7283 50.3645 81.7283 50.7089C81.7283 51.0533 82.0074 51.3325 82.3518 51.3325Z" fill="#00AFAA"/>
</g>
</g>
<defs>
<clipPath id="clip0_4124_3170">
<rect width="77.7973" height="48.8571" fill="white" transform="translate(7.01208 9.8479)"/>
</clipPath>
</defs>
</svg>
