<svg width="161" height="21" viewBox="0 0 161 21" fill="none" xmlns="http://www.w3.org/2000/svg">
<g clip-path="url(#clip0_1081_962)">
<path d="M13.5382 5.80288C13.5382 6.71017 12.7697 7.44735 11.8238 7.44735C10.8779 7.44735 10.1093 6.71017 10.1093 5.80288C10.1093 4.89559 10.8779 4.15842 11.8238 4.15842C12.7697 4.15842 13.5382 4.89559 13.5382 5.80288Z" fill="#00AFAA"/>
<path d="M44.4179 19.1854C44.4179 20.0927 43.6494 20.8299 42.7035 20.8299C41.7576 20.8299 40.989 20.0927 40.989 19.1854C40.989 18.2781 41.7576 17.541 42.7035 17.541C43.6494 17.541 44.4179 18.2781 44.4179 19.1854Z" fill="#FFB600"/>
<path d="M69.3857 1.64446C69.3857 2.55175 68.6171 3.28893 67.6712 3.28893C66.7253 3.28893 65.9568 2.55175 65.9568 1.64446C65.9568 0.737174 66.7253 0 67.6712 0C68.6171 0 69.3857 0.737174 69.3857 1.64446Z" fill="#00AFAA"/>
<path d="M143.383 5.80288C143.383 6.71017 142.614 7.44735 141.668 7.44735C140.722 7.44735 139.954 6.71017 139.954 5.80288C139.954 4.89559 140.722 4.15842 141.668 4.15842C142.614 4.15842 143.383 4.89559 143.383 5.80288Z" fill="#FFB600"/>
<path d="M13.5973 17.5977H8.51312C5.51777 17.5977 3.01508 15.2916 2.99537 12.4185C2.95596 9.69667 5.10394 7.44735 7.84311 7.16382C8.17811 7.12602 8.4343 6.84249 8.4343 6.52116V4.9334C8.4343 4.55536 8.09929 4.25293 7.70516 4.29073C3.3895 4.66877 -0.0196823 8.14672 2.39655e-05 12.3807C0.0197302 16.8605 3.86245 20.4519 8.51312 20.4519H13.5973C13.9718 20.4519 14.2673 20.1683 14.2673 19.8092V18.2403C14.2673 17.8812 13.9718 17.5977 13.5973 17.5977Z" fill="black"/>
<path d="M39.3731 5.76507C37.501 4.70657 35.6486 4.66876 35.4515 4.66876C30.7614 4.66876 26.9384 8.33573 26.9384 12.8344C26.9384 15.0081 27.8449 17.0117 29.4805 18.4482C31.057 19.847 33.1853 20.6031 35.4515 20.6031H38.7227C39.0972 20.6031 39.3928 20.3195 39.3928 19.9604V18.3915C39.3928 18.0324 39.0972 17.7489 38.7227 17.7489H35.4515C33.9341 17.7489 32.5153 17.2574 31.4906 16.3501C30.4658 15.4428 29.9141 14.2331 29.9141 12.8344C29.9141 9.90459 32.397 7.54185 35.4318 7.54185C35.4515 7.54185 36.6536 7.57965 37.836 8.24122C39.1169 8.95949 39.8854 10.1692 40.1613 11.8326H33.7371C33.3627 11.8326 33.0671 12.1161 33.0671 12.4752V14.0441C33.0671 14.4032 33.3627 14.6868 33.7371 14.6868H41.7772C42.6049 14.6868 43.2749 14.0441 43.2749 13.2502C43.2749 8.90279 41.1466 6.78577 39.3731 5.76507Z" fill="black"/>
<path d="M68.4201 4.8389H66.7845C66.41 4.8389 66.1144 5.12243 66.1144 5.48156V19.9226C66.1144 20.2817 66.41 20.5653 66.7845 20.5653H68.4201C68.7945 20.5653 69.0901 20.2817 69.0901 19.9226V5.48156C69.0901 5.12243 68.7945 4.8389 68.4201 4.8389Z" fill="black"/>
<path d="M107.734 4.83888H106.098C105.724 4.83888 105.428 5.12241 105.428 5.48155V7.0126C103.891 5.53825 101.783 4.61206 99.4377 4.61206C94.787 4.61206 91.0034 8.24122 91.0034 12.7021C91.0034 17.1629 94.787 20.7921 99.4377 20.7921C101.783 20.7921 103.891 19.8848 105.428 18.3915V19.9037C105.428 20.2628 105.724 20.5464 106.098 20.5464H107.734C108.108 20.5464 108.404 20.2628 108.404 19.9037V5.48155C108.404 5.12241 108.108 4.83888 107.734 4.83888ZM99.4377 17.9379C96.4423 17.9379 93.9988 15.5941 93.9988 12.721C93.9988 9.84788 96.4423 7.50405 99.4377 7.50405C102.433 7.50405 104.877 9.84788 104.877 12.721C104.877 15.5941 102.433 17.9379 99.4377 17.9379Z" fill="black"/>
<path d="M61.6214 0.283539H59.9858C59.6114 0.283539 59.3158 0.567067 59.3158 0.926203V7.16383C57.7787 5.53826 55.5519 4.53646 53.0886 4.53646C48.438 4.53646 44.6544 8.16563 44.6544 12.6265C44.6544 17.0873 48.438 20.7165 53.0886 20.7165C55.5519 20.7165 57.759 19.6958 59.3158 18.0891V19.9415C59.3158 20.3006 59.6114 20.5842 59.9858 20.5842H61.6214C61.9959 20.5842 62.2914 20.3006 62.2914 19.9415V0.926203C62.2914 0.567067 61.9959 0.283539 61.6214 0.283539ZM53.0886 17.8434C50.0933 17.8434 47.6497 15.4996 47.6497 12.6265C47.6497 9.75339 50.0933 7.40955 53.0886 7.40955C56.084 7.40955 58.5276 9.75339 58.5276 12.6265C58.5276 15.4996 56.084 17.8434 53.0886 17.8434Z" fill="black"/>
<path d="M25.9334 4.81998H17.0262C16.6518 4.81998 16.3562 5.10351 16.3562 5.46264V19.8848C16.3562 20.2439 16.6518 20.5274 17.0262 20.5274H18.6618C19.0362 20.5274 19.3318 20.2439 19.3318 19.8848V7.69306H25.9137C26.2881 7.69306 26.5837 7.40954 26.5837 7.0504V5.46264C26.6034 5.10351 26.3079 4.81998 25.9334 4.81998Z" fill="black"/>
<path d="M81.308 4.53646C79.0221 4.53646 76.9332 5.42485 75.4158 6.8425V0.926203C75.4158 0.567067 75.1202 0.283539 74.7458 0.283539H73.1102C72.7358 0.283539 72.4402 0.567067 72.4402 0.926203V19.9226C72.4402 20.2817 72.7358 20.5653 73.1102 20.5653H74.7458C75.1202 20.5653 75.4158 20.2817 75.4158 19.9226V18.3916C76.9332 19.8281 79.0221 20.6976 81.308 20.6976C85.9587 20.6976 89.7423 17.0684 89.7423 12.6076C89.7423 8.16563 85.9587 4.53646 81.308 4.53646ZM81.308 17.8434C78.3126 17.8434 75.8691 15.4996 75.8691 12.6265C75.8691 9.75339 78.3126 7.40955 81.308 7.40955C84.3033 7.40955 86.7469 9.75339 86.7469 12.6265C86.7469 15.4996 84.3033 17.8434 81.308 17.8434Z" fill="black"/>
<path d="M152.566 4.63095C147.915 4.63095 144.131 8.26011 144.131 12.721C144.131 17.1818 147.915 20.811 152.566 20.811C157.216 20.811 161 17.1818 161 12.721C161 8.26011 157.216 4.63095 152.566 4.63095ZM152.566 17.9379C149.57 17.9379 147.127 15.594 147.127 12.721C147.127 9.84787 149.57 7.50404 152.566 7.50404C155.561 7.50404 158.005 9.84787 158.005 12.721C158.005 15.594 155.561 17.9379 152.566 17.9379Z" fill="black"/>
<path d="M143.501 17.5977H138.358C135.362 17.5977 132.86 15.2916 132.84 12.4185C132.82 9.69667 134.948 7.46625 137.688 7.16382C138.023 7.12602 138.279 6.84249 138.279 6.52116V4.9334C138.279 4.55536 137.944 4.25293 137.55 4.29073C133.234 4.64987 129.844 8.14672 129.844 12.3807C129.864 16.8605 133.707 20.4519 138.358 20.4519H143.481C143.856 20.4519 144.151 20.1683 144.151 19.8092V18.2403C144.191 17.8812 143.875 17.5977 143.501 17.5977Z" fill="black"/>
<path d="M119.4 4.55537C114.631 4.53647 110.729 8.26014 110.729 12.8533L110.749 19.9226C110.749 20.2817 111.045 20.5653 111.419 20.5653H113.055C113.429 20.5653 113.725 20.2817 113.725 19.9226L113.705 12.8533C113.705 9.8479 116.267 7.39065 119.42 7.42846C122.533 7.46626 125.016 9.94241 125.016 12.9289V15.6508C125.016 16.0099 125.312 16.2934 125.686 16.2934H127.322C127.696 16.2934 127.992 16.0099 127.992 15.6508V12.9289C128.012 8.33575 124.169 4.57427 119.4 4.55537Z" fill="black"/>
<path d="M126.534 21C125.588 21 124.819 20.2628 124.819 19.3555C124.819 18.4482 125.588 17.7111 126.534 17.7111C127.48 17.7111 128.248 18.4482 128.248 19.3555C128.248 20.2628 127.48 21 126.534 21Z" fill="#00AFAA"/>
</g>
<defs>
<clipPath id="clip0_1081_962">
<rect width="161" height="21" fill="white"/>
</clipPath>
</defs>
</svg>
