<svg width="26" height="26" viewBox="0 0 26 26" fill="none" xmlns="http://www.w3.org/2000/svg">
<path d="M4.84961 5.28125H21.0996C21.2894 5.28116 21.4791 5.2932 21.6673 5.31731C21.6035 4.8693 21.4496 4.43886 21.215 4.05193C20.9803 3.66501 20.6697 3.32961 20.3019 3.06597C19.9341 2.80233 19.5167 2.6159 19.0749 2.51793C18.6331 2.41995 18.1761 2.41246 17.7313 2.4959L4.36719 4.7775H4.35195C3.51308 4.93792 2.7671 5.41253 2.26637 6.10441C3.02077 5.56782 3.92384 5.28006 4.84961 5.28125ZM21.0996 6.5H4.84961C3.98794 6.50094 3.16184 6.84365 2.55255 7.45294C1.94326 8.06223 1.60055 8.88834 1.59961 9.75V19.5C1.60055 20.3617 1.94326 21.1878 2.55255 21.7971C3.16184 22.4063 3.98794 22.7491 4.84961 22.75H21.0996C21.9613 22.7491 22.7874 22.4063 23.3967 21.7971C24.006 21.1878 24.3487 20.3617 24.3496 19.5V9.75C24.3487 8.88834 24.006 8.06223 23.3967 7.45294C22.7874 6.84365 21.9613 6.50094 21.0996 6.5ZM18.6875 16.25C18.3661 16.25 18.0519 16.1547 17.7847 15.9761C17.5175 15.7976 17.3092 15.5438 17.1862 15.2469C17.0632 14.9499 17.031 14.6232 17.0937 14.308C17.1564 13.9928 17.3112 13.7032 17.5385 13.476C17.7657 13.2487 18.0553 13.0939 18.3705 13.0312C18.6857 12.9685 19.0124 13.0007 19.3094 13.1237C19.6063 13.2467 19.8601 13.455 20.0386 13.7222C20.2172 13.9894 20.3125 14.3036 20.3125 14.625C20.3125 15.056 20.1413 15.4693 19.8365 15.774C19.5318 16.0788 19.1185 16.25 18.6875 16.25Z" fill="#9D9B9B"/>
<path d="M1.625 13.1777V8.125C1.625 7.02457 2.23438 5.17969 4.34941 4.78004C6.14453 4.44336 7.92188 4.44336 7.92188 4.44336C7.92188 4.44336 9.08984 5.25586 8.125 5.25586C7.16016 5.25586 7.18555 6.5 8.125 6.5C9.06445 6.5 8.125 7.69336 8.125 7.69336L4.3418 11.9844L1.625 13.1777Z" fill="#9D9B9B"/>
</svg>
