<svg width="12" height="12" viewBox="0 0 12 12" fill="none" xmlns="http://www.w3.org/2000/svg">
<path fill-rule="evenodd" clip-rule="evenodd" d="M13.7659 2.48409C13.5628 2.28099 13.2873 2.1669 13 2.1669C12.7128 2.1669 12.4373 2.28099 12.2341 2.48409L4.65078 10.0674L2.48411 12.2341C2.38064 12.334 2.29811 12.4536 2.24133 12.5857C2.18456 12.7179 2.15467 12.8601 2.15342 13.0039C2.15217 13.1477 2.17958 13.2904 2.23405 13.4235C2.28852 13.5567 2.36897 13.6776 2.47068 13.7793C2.5724 13.8811 2.69336 13.9615 2.82649 14.016C2.95963 14.0704 3.10228 14.0979 3.24613 14.0966C3.38997 14.0954 3.53213 14.0655 3.6643 14.0087C3.79647 13.9519 3.91601 13.8694 4.01594 13.7659L4.33336 13.4485V20.5833C4.33336 21.4453 4.67577 22.2719 5.28526 22.8814C5.89476 23.4909 6.72141 23.8333 7.58336 23.8333H18.4167C19.2786 23.8333 20.1053 23.4909 20.7148 22.8814C21.3243 22.2719 21.6667 21.4453 21.6667 20.5833V13.4485L21.9841 13.7659C22.1884 13.9633 22.4621 14.0725 22.7461 14.07C23.0302 14.0675 23.3019 13.9536 23.5027 13.7527C23.7036 13.5519 23.8175 13.2802 23.82 12.9961C23.8225 12.7121 23.7133 12.4384 23.5159 12.2341L13.7659 2.48409Z" fill="#8D8A8A"/>
</svg>
