<svg width="15" height="14" viewBox="0 0 15 14" fill="none" xmlns="http://www.w3.org/2000/svg">
<path d="M14.3 0.278188C14.2075 0.190003 14.0976 0.120041 13.9766 0.0723061C13.8556 0.024571 13.726 0 13.595 0C13.464 0 13.3343 0.024571 13.2134 0.0723061C13.0924 0.120041 12.9825 0.190003 12.89 0.278188L2 10.6278V5.3103C2 4.78711 1.55 4.35905 1 4.35905C0.45 4.35905 0 4.78711 0 5.3103V12.9203C0 13.4435 0.45 13.8716 1 13.8716H9C9.55 13.8716 10 13.4435 10 12.9203C10 12.3971 9.55 11.9691 9 11.9691H3.41L14.3 1.60994C14.68 1.24846 14.68 0.639663 14.3 0.278188Z" fill="black"/>
</svg>
